HIERARCHY
ROOT hip
{
  OFFSET 0 0 0
  CHANNELS 6 Xposition Yposition Zposition Zrotation Yrotation Xrotation
  JOINT abdomen
  {
    OFFSET 0 20.6881 -0.73152
    CHANNELS 3 Zrotation Xrotation Yrotation
    JOINT chest
    {
      OFFSET 0 11.7043 -0.48768
      CHANNELS 3 Zrotation Xrotation Yrotation
      JOINT neck
      {
        OFFSET 0 22.1894 -2.19456
        CHANNELS 3 Zrotation Xrotation Yrotation
        JOINT head
        {
          OFFSET -0.24384 7.07133 1.2192
          CHANNELS 3 Zrotation Xrotation Yrotation
          JOINT leftEye
          {
            OFFSET 4.14528 8.04674 8.04672
            CHANNELS 3 Zrotation Xrotation Yrotation
            End Site
            {
              OFFSET 1 0 0
            }
          }
          JOINT rightEye
          {
            OFFSET -3.6576 8.04674 8.04672
            CHANNELS 3 Zrotation Xrotation Yrotation
            End Site
            {
              OFFSET 1 0 0
            }
          }
        }
      }
      JOINT rCollar
      {
        OFFSET -2.68224 19.2634 -4.8768
        CHANNELS 3 Zrotation Xrotation Yrotation
        JOINT rShldr
        {
          OFFSET -8.77824 -1.95073 1.46304
          CHANNELS 3 Zrotation Xrotation Yrotation
          JOINT rForeArm
          {
            OFFSET -28.1742 -1.7115 0.48768
            CHANNELS 3 Zrotation Xrotation Yrotation
            JOINT rHand
            {
              OFFSET -22.5879 0.773209 7.07136
              CHANNELS 3 Zrotation Xrotation Yrotation
              JOINT rThumb1
              {
                OFFSET -1.2192 -0.487915 3.41376
                CHANNELS 3 Zrotation Xrotation Yrotation
                JOINT rThumb2
                {
                  OFFSET -3.37035 -0.52449 3.41376
                  CHANNELS 3 Zrotation Xrotation Yrotation
                  End Site
                  {
                    OFFSET -1.78271 -1.18214 1.43049
                  }
                }
              }
              JOINT rIndex1
              {
                OFFSET -7.75947 0.938293 5.60832
                CHANNELS 3 Zrotation Xrotation Yrotation
                JOINT rIndex2
                {
                  OFFSET -2.54057 -0.884171 1.56538
                  CHANNELS 3 Zrotation Xrotation Yrotation
                  End Site
                  {
                    OFFSET -1.62519 -0.234802 1.16502
                  }
                }
              }
              JOINT rMid1
              {
                OFFSET -8.24714 1.18213 3.41376
                CHANNELS 3 Zrotation Xrotation Yrotation
                JOINT rMid2
                {
                  OFFSET -3.10165 -0.590103 1.0647
                  CHANNELS 3 Zrotation Xrotation Yrotation
                  End Site
                  {
                    OFFSET -2.48547 -0.328903 0.83742
                  }
                }
              }
              JOINT rRing1
              {
                OFFSET -8.82822 0.546677 1.51678
                CHANNELS 3 Zrotation Xrotation Yrotation
                JOINT rRing2
                {
                  OFFSET -2.60934 -0.819778 -0.0198488
                  CHANNELS 3 Zrotation Xrotation Yrotation
                  End Site
                  {
                    OFFSET -2.33842 -0.294052 0.168128
                  }
                }
              }
              JOINT rPinky1
              {
                OFFSET -8.27202 -0.0477905 -0.4584
                CHANNELS 3 Zrotation Xrotation Yrotation
                JOINT rPinky2
                {
                  OFFSET -1.82734 -0.647385 -0.700984
                  CHANNELS 3 Zrotation Xrotation Yrotation
                  End Site
                  {
                    OFFSET -1.69225 -0.51767 -0.607171
                  }
                }
              }
            }
          }
        }
      }
      JOINT lCollar
      {
        OFFSET 2.68224 19.2634 -4.8768
        CHANNELS 3 Zrotation Xrotation Yrotation
        JOINT lShldr
        {
          OFFSET 8.77824 -1.95073 1.46304
          CHANNELS 3 Zrotation Xrotation Yrotation
          JOINT lForeArm
          {
            OFFSET 28.1742 -1.7115 0.48768
            CHANNELS 3 Zrotation Xrotation Yrotation
            JOINT lHand
            {
              OFFSET 22.5879 0.773209 7.07136
              CHANNELS 3 Zrotation Xrotation Yrotation
              JOINT lThumb1
              {
                OFFSET 1.2192 -0.487915 3.41376
                CHANNELS 3 Zrotation Xrotation Yrotation
                JOINT lThumb2
                {
                  OFFSET 3.37035 -0.52449 3.41376
                  CHANNELS 3 Zrotation Xrotation Yrotation
                  End Site
                  {
                    OFFSET 1.78271 -1.18214 1.43049
                  }
                }
              }
              JOINT lIndex1
              {
                OFFSET 7.75947 0.938293 5.60832
                CHANNELS 3 Zrotation Xrotation Yrotation
                JOINT lIndex2
                {
                  OFFSET 2.54057 -0.884171 1.56538
                  CHANNELS 3 Zrotation Xrotation Yrotation
                  End Site
                  {
                    OFFSET 1.62519 -0.234802 1.16502
                  }
                }
              }
              JOINT lMid1
              {
                OFFSET 8.24714 1.18213 3.41376
                CHANNELS 3 Zrotation Xrotation Yrotation
                JOINT lMid2
                {
                  OFFSET 3.10165 -0.590103 1.0647
                  CHANNELS 3 Zrotation Xrotation Yrotation
                  End Site
                  {
                    OFFSET 2.48547 -0.328903 0.83742
                  }
                }
              }
              JOINT lRing1
              {
                OFFSET 8.82822 0.546677 1.51678
                CHANNELS 3 Zrotation Xrotation Yrotation
                JOINT lRing2
                {
                  OFFSET 2.60934 -0.819778 -0.0198488
                  CHANNELS 3 Zrotation Xrotation Yrotation
                  End Site
                  {
                    OFFSET 2.33842 -0.294052 0.168128
                  }
                }
              }
              JOINT lPinky1
              {
                OFFSET 8.27202 -0.0477905 -0.4584
                CHANNELS 3 Zrotation Xrotation Yrotation
                JOINT lPinky2
                {
                  OFFSET 1.82734 -0.647385 -0.700984
                  CHANNELS 3 Zrotation Xrotation Yrotation
                  End Site
                  {
                    OFFSET 1.69225 -0.51767 -0.607171
                  }
                }
              }
            }
          }
        }
      }
    }
  }
  JOINT rButtock
  {
    OFFSET -8.77824 4.35084 1.2192
    CHANNELS 3 Zrotation Xrotation Yrotation
    JOINT rThigh
    {
      OFFSET 0 -1.70687 -2.19456
      CHANNELS 3 Zrotation Xrotation Yrotation
      JOINT rShin
      {
        OFFSET 0 -36.8199 0.73152
        CHANNELS 3 Zrotation Xrotation Yrotation
        JOINT rFoot
        {
          OFFSET 0.73152 -45.1104 -5.12064
          CHANNELS 3 Zrotation Xrotation Yrotation
          End Site
          {
            OFFSET -1.1221 -3.69964 12.103
          }
        }
      }
    }
  }
  JOINT lButtock
  {
    OFFSET 8.77824 4.35084 1.2192
    CHANNELS 3 Zrotation Xrotation Yrotation
    JOINT lThigh
    {
      OFFSET 0 -1.70687 -2.19456
      CHANNELS 3 Zrotation Xrotation Yrotation
      JOINT lShin
      {
        OFFSET 0 -36.8199 0.73152
        CHANNELS 3 Zrotation Xrotation Yrotation
        JOINT lFoot
        {
          OFFSET -0.73152 -45.1104 -5.12064
          CHANNELS 3 Zrotation Xrotation Yrotation
          End Site
          {
            OFFSET 1.1221 -3.69964 12.103
          }
        }
      }
    }
  }
}
MOTION
Frames:	4
Frame Time:	0.03333
-11.7362 73.7263 -40.2637 163.459134 -70.441641 -161.18844 -12.659661 9.439785 -116.171051 6.053735 18.51325 108.166419 -8.968203 13.825843 96.914459 -27.724681 -2.907316 -75.909833 179.448429 -0.064284 13.295195 15.310664 7.707418 53.236279 -19.869556 20.267521 18.11562 86.112979 -19.60374 94.150671 -21.986152 29.866508 95.747973 1.983031 -5.385337 -7.766766 146.525728 -53.278753 134.473134 -155.846027 -5.367043 -165.9739 -23.271956 8.727634 -36.472107 5.823996 64.932849 76.588571 -125.850477 40.430369 94.472497 -159.807723 -25.204989 85.98004 27.513461 2.729899 1.677122 -75.711272 11.808614 25.15133 -63.903341 57.531169 93.009842 -25.600703 15.539473 118.713561 144.319265 -55.371569 160.711306 69.040637 12.122092 29.980527 3.40794 -18.240343 131.556736 178.209966 -2.21482 -151.655039 0.730419 -19.75234 3.280688 17.023873 -16.836316 -82.582178 119.335265 -43.103542 -120.563031 125.126967 -58.29462 -134.239112 -138.081871 26.805291 114.273138 173.547509 -34.301948 76.025567 102.430095 57.714856 -35.457325 -24.497669 19.063842 -142.399429 -139.293088 -52.65525 -75.379203 -127.133263 -6.749319 -137.497398 148.674847 65.56193 27.670682 173.981282 49.652631 -178.249917 12.011698 -55.967568 4.528018 -52.121854 28.352643 -174.42816 35.41859 10.981663 86.771355 -57.504578 19.212949 160.157211 -43.643326 -39.966608 65.34469 127.742484 25.98653 -51.90244
-13.281699999999999 75.5791 -41.138000000000005 160.73315 -75.554546 -157.447586 -9.286516 8.429392 -108.179041 10.160608 13.314534 105.020219 -18.572819 7.886776 -11.979204 15.681815 -19.776617 26.72107 -174.659052 0.83802 17.822164 7.930789 5.806589 72.3795 6.050264 -74.976271 -4.521453 -102.02194 56.187517 178.436342 88.677853 38.39791 129.469715 -167.507018 47.451133 135.497675 11.731558 -83.516874 25.408438 -61.406128 -5.95275 -131.932036 -79.625846 81.207099 19.861119 17.595695 -17.378881 99.368392 -175.235182 -2.139424 134.565893 136.126769 10.737485 109.120312 -111.374876 -9.04554 -161.805918 -74.434719 56.957708 179.412512 -112.543632 -57.868986 -109.204748 37.862424 48.267408 -97.617482 21.632705 -60.840931 30.861525 -111.248136 15.739685 95.437148 4.968456 -4.706095 -95.274366 2.174274 -17.170958 -5.398104 137.801064 25.274395 -78.785457 129.641435 47.845663 -79.103263 -60.031799 -52.222208 13.214083 126.675173 -23.097168 -76.327821 130.747666 7.666124 128.31863 159.354141 41.38271 84.054965 68.163874 14.72858 -39.449381 69.989098 -42.223414 -124.615682 -60.274946 3.120047 -72.515926 134.217683 -13.52797 28.283432 -160.379961 70.612464 -15.155338 147.601099 52.765209 86.956809 52.791229 16.062131 97.377545 -121.627289 27.255252 -161.722574 -75.816168 2.056995 -84.72416 84.430289 44.425826 4.14564 -1.180233 56.051423 72.509158 -138.937897 12.784692 53.849527
-14.64 77.5123 -43.369 178.905386 -86.021375 -174.378124 -6.349973 8.952877 52.286791 -8.484154 -13.625463 -37.499457 -11.489423 15.350918 -29.935363 13.700501 -21.705473 27.119318 -173.199264 1.808659 29.755128 -0.051305 -0.05099 89.647334 -158.400952 52.47631 166.500342 -46.281497 19.100438 -4.182768 172.254343 -25.720328 -78.388848 -1.324116 16.012619 -1.503925 56.754972 -51.070765 76.732625 -104.61926 -3.402224 -111.895196 -57.869299 48.685478 -27.269274 -3.706676 18.582317 105.708888 -9.260051 -23.872152 1.025376 -26.779537 -32.103807 -103.243399 38.161872 40.792078 -18.135079 113.234836 -20.51149 -160.667893 -26.88939 -34.917788 -8.974291 -169.188987 31.716984 -37.141778 84.995483 58.303628 -72.952773 -61.883919 15.444604 -65.387836 173.340442 37.698673 -51.55382 176.806261 7.776065 -149.283609 -179.175458 -19.479749 -110.373017 101.508864 49.712795 -102.339555 129.57367 -50.494383 -131.876972 -66.324161 -6.656718 25.73789 149.98079 22.787699 136.868837 21.677423 9.408977 128.242823 65.879655 80.352329 -63.05608 -50.007015 -8.873915 -86.073204 131.580121 20.083221 -130.343853 38.714325 16.374751 -116.528739 126.750098 84.795607 30.095263 -123.61914 66.609923 -120.917082 -50.483584 20.109329 -67.087248 58.760041 -48.315373 151.430726 18.584257 -1.921235 90.30386 -41.9567 3.25639 -86.448032 -1.949757 52.802132 61.497038 -129.467117 13.243825 50.723799
-15.7075 77.9989 -45.285599999999995 -99.959446 -87.708728 105.771756 -1.623239 7.351772 -16.460234 4.329673 -13.885341 45.39647 -7.054544 24.360136 -81.385799 31.759801 -7.664383 64.314942 -173.824985 1.812537 32.689423 -176.120339 3.19474 78.933167 12.649989 23.066451 -27.655653 -131.565726 9.540194 115.181665 -6.943055 -0.635383 -148.497808 168.405925 -2.360739 146.551243 -175.994622 20.084809 53.127932 48.900698 35.097448 105.484942 -89.161588 -58.41044 -64.619407 -178.461582 43.080684 -128.036771 -4.637523 -49.920989 -10.010828 -154.059012 38.821131 -111.693998 -131.040613 14.603557 -151.464372 -43.002609 -11.95986 -157.676434 -129.455301 82.810295 139.206645 -22.209382 5.155779 162.747476 79.737079 46.599904 -67.722597 -88.865707 -1.77375 -52.630283 -176.11398 9.098791 -53.404948 174.092614 17.607968 -146.684754 150.909183 41.949841 -98.156117 118.730635 -61.464933 146.461748 80.554697 41.492765 -103.943143 -179.186293 32.11997 -174.584106 106.624405 -5.466961 145.457454 40.150541 -21.405473 159.740887 117.589191 -41.600455 141.09153 47.765874 4.312454 63.875025 3.420609 -32.063796 -47.142248 148.065371 24.751768 49.376397 24.753114 50.284077 105.837494 -52.31244 39.332646 125.532836 -36.610088 -31.753329 56.332628 116.009074 11.737932 -14.782496 14.586481 -7.326228 95.116046 -38.768768 1.364459 -90.467442 -0.308728 53.533082 93.921622 4.847993 -8.88051 -107.9366
